<?xml version="1.0" encoding="UTF-8"?>
<!DOCTYPE svg PUBLIC "-//W3C//DTD SVG 1.1//EN" "http://www.w3.org/Graphics/SVG/1.1/DTD/svg11.dtd">
<!-- Creator: CorelDRAW 2017 -->
<svg xmlns="http://www.w3.org/2000/svg" xml:space="preserve" width="190px" height="45px" version="1.1" style="shape-rendering:geometricPrecision; text-rendering:geometricPrecision; image-rendering:optimizeQuality; fill-rule:evenodd; clip-rule:evenodd"
viewBox="0 0 190 45"
 xmlns:xlink="http://www.w3.org/1999/xlink">
 <defs>
  <style type="text/css">
   <![CDATA[
    .fil1 {fill:#FEFEFE;fill-rule:nonzero}
    .fil2 {fill:#4B4B4D;fill-rule:nonzero}
    .fil0 {fill:url(#id0)}
   ]]>
  </style>
  <linearGradient id="id0" gradientUnits="userSpaceOnUse" x1="28.44" y1="8.58" x2="28.44" y2="38.26">
   <stop offset="0" style="stop-opacity:1; stop-color:#D6152C"/>
   <stop offset="1" style="stop-opacity:1; stop-color:#E73348"/>
  </linearGradient>
 </defs>
 <g id="Camada_x0020_1">
  <metadata id="CorelCorpID_0Corel-Layer"/>
  <g id="_2579630428432">
   <path class="fil0" d="M53.8 35.9c0,1.45 -1.18,2.63 -2.63,2.63l-45.45 0c-1.45,0 -2.63,-1.18 -2.63,-2.63l0 -24.61c0,-1.45 1.18,-2.62 2.63,-2.62l45.45 0c1.45,0 2.63,1.17 2.63,2.62l0 24.61z"/>
   <path class="fil1" d="M43.49 29.45c-1.94,0 -3.52,-1.58 -3.52,-3.52 0,-1.94 1.58,-3.52 3.52,-3.52 1.94,0 3.52,1.58 3.52,3.52 0,1.94 -1.58,3.52 -3.52,3.52zm0 -9.72c-1.31,0 -2.52,0.41 -3.52,1.1l0 -3.83c0,-0.74 -0.6,-1.34 -1.34,-1.34 -0.74,0 -1.34,0.6 -1.34,1.34l0 13.79c0,0.74 0.6,1.34 1.34,1.34 0.66,0 1.21,-0.48 1.32,-1.11 1,0.7 2.22,1.11 3.54,1.11 3.42,0 6.2,-2.78 6.2,-6.2 0,-3.42 -2.78,-6.2 -6.2,-6.2z"/>
   <path class="fil1" d="M14.38 19.73c-1.31,0 -2.52,0.41 -3.52,1.1l0 -3.91c0,-0.74 -0.6,-1.34 -1.34,-1.34 -0.74,0 -1.34,0.6 -1.34,1.34l0 13.87c0,0.74 0.6,1.34 1.34,1.34 0.74,0 1.34,-0.6 1.34,-1.34l0 -4.86c0,-1.94 1.58,-3.52 3.52,-3.52 1.94,0 3.52,1.58 3.52,3.52l0 4.86c0,0.74 0.6,1.34 1.34,1.34 0.74,0 1.34,-0.6 1.34,-1.34l0 -4.86c0,-3.42 -2.78,-6.2 -6.2,-6.2z"/>
   <path class="fil2" d="M167.43 30.02c-4.88,0 -8.84,-3.97 -8.84,-8.84 0,-4.87 3.96,-8.84 8.84,-8.84 3.09,0 5.9,1.58 7.53,4.21 0.54,0.89 0.28,2.05 -0.6,2.62l-6.41 4.1c-0.89,0.57 -2.07,0.31 -2.65,-0.58 -0.57,-0.89 -0.31,-2.07 0.58,-2.64l4.53 -2.9c-0.84,-0.63 -1.88,-0.98 -2.98,-0.98 -2.77,0 -5.02,2.24 -5.02,5.01 0,2.76 2.25,5.01 5.02,5.01 1.45,0 2.83,-0.63 3.78,-1.72 0.69,-0.8 1.9,-0.89 2.7,-0.19 0.79,0.69 0.88,1.9 0.19,2.69 -1.68,1.94 -4.12,3.05 -6.67,3.05z"/>
   <g>
    <path class="fil2" d="M74.71 30.41c-0.98,-0.39 -2.09,0.09 -2.48,1.08 -0.76,1.93 -2.59,3.17 -4.67,3.17 -2.07,0 -3.9,-1.24 -4.66,-3.17 -0.39,-0.99 -1.5,-1.47 -2.48,-1.08 -0.98,0.39 -1.47,1.5 -1.08,2.48 1.34,3.4 4.57,5.6 8.22,5.6 3.66,0 6.89,-2.2 8.23,-5.6 0.39,-0.98 -0.1,-2.09 -1.08,-2.48z"/>
    <path class="fil2" d="M67.56 16.24c2.77,0 5.02,2.24 5.02,5.01 0,2.76 -2.25,5.01 -5.02,5.01 -2.76,0 -5.01,-2.25 -5.01,-5.01 0,-2.77 2.25,-5.01 5.01,-5.01zm0 13.85c4.88,0 8.84,-3.97 8.84,-8.84 0,-1.75 -0.51,-3.37 -1.39,-4.75l0.83 -0.83c0.75,-0.74 0.75,-1.95 0,-2.7 -0.75,-0.74 -1.96,-0.74 -2.7,0l-0.83 0.83c-1.37,-0.88 -3,-1.39 -4.75,-1.39 -4.87,0 -8.83,3.97 -8.83,8.84 0,4.87 3.96,8.84 8.83,8.84z"/>
   </g>
   <path class="fil2" d="M86.15 16.16c-2.76,0 -5.01,2.25 -5.01,5.02 0,2.76 2.25,5.01 5.01,5.01 2.77,0 5.01,-2.25 5.01,-5.01 0,-2.77 -2.24,-5.02 -5.01,-5.02zm0 13.86c-4.87,0 -8.83,-3.97 -8.83,-8.84 0,-4.87 3.96,-8.84 8.83,-8.84 4.88,0 8.84,3.97 8.84,8.84 0,4.87 -3.96,8.84 -8.84,8.84z"/>
   <path class="fil2" d="M185 26.19c-2.77,0 -5.02,-2.25 -5.02,-5.01l0 -4.73 3.17 0c1.05,0 1.91,-0.86 1.91,-1.91 0,-1.06 -0.86,-1.92 -1.91,-1.92l-3.17 0 0 -4.23c0,-1.06 -0.85,-1.92 -1.91,-1.92 -1.05,0 -1.91,0.86 -1.91,1.92l0 12.79c0,4.87 3.97,8.84 8.84,8.84 1.05,0 1.91,-0.86 1.91,-1.92 0,-1.05 -0.86,-1.91 -1.91,-1.91z"/>
   <path class="fil2" d="M148.84 12.34c-2.81,0 -5.31,1.32 -6.93,3.36 -1.62,-2.04 -4.12,-3.36 -6.92,-3.36 -1.88,0 -3.63,0.6 -5.06,1.6 -0.2,-0.85 -0.96,-1.48 -1.87,-1.48 -1.05,0 -1.91,0.85 -1.91,1.91l0 13.73c0,1.06 0.86,1.92 1.91,1.92 1.06,0 1.92,-0.86 1.92,-1.92l0 -6.92c0,-2.77 2.25,-5.01 5.01,-5.01 2.76,0 5.01,2.24 5.01,5.01l0 6.92c0,1.06 0.86,1.92 1.91,1.92 1.06,0 1.92,-0.86 1.92,-1.92l0 -6.92c0,-2.77 2.24,-5.01 5.01,-5.01 2.76,0 5.01,2.24 5.01,5.01l0 6.92c0,1.06 0.86,1.92 1.91,1.92 1.06,0 1.91,-0.86 1.91,-1.92l0 -6.92c0,-4.87 -3.96,-8.84 -8.83,-8.84z"/>
   <path class="fil2" d="M123.33 12.34c-1.88,0 -3.63,0.59 -5.06,1.6 -0.2,-0.85 -0.96,-1.49 -1.87,-1.49 -1.06,0 -1.91,0.86 -1.91,1.91l0 13.74c0,1.06 0.85,1.92 1.91,1.92 1.06,0 1.91,-0.86 1.91,-1.92l0 -6.92c0,-2.77 2.25,-5.02 5.02,-5.02 1.05,0 1.91,-0.85 1.91,-1.91 0,-1.05 -0.86,-1.91 -1.91,-1.91z"/>
   <path class="fil2" d="M111.66 12.34c-1.05,0 -1.91,0.86 -1.91,1.91l0 6.93c0,2.76 -2.25,5.01 -5.01,5.01 -2.76,0 -5.01,-2.25 -5.01,-5.01l0 -6.93c0,-1.05 -0.86,-1.91 -1.92,-1.91 -1.05,0 -1.91,0.86 -1.91,1.91l0 6.93c0,4.87 3.97,8.84 8.84,8.84 1.88,0 3.61,-0.6 5.05,-1.59 0.16,0.88 0.94,1.56 1.87,1.56 1.06,0 1.92,-0.86 1.92,-1.92l0 -13.82c0,-1.05 -0.86,-1.91 -1.92,-1.91z"/>
   <path class="fil1" d="M33.51 19.73c-0.74,0 -1.34,0.6 -1.34,1.34l0 4.86c0,1.94 -1.58,3.52 -3.52,3.52 -1.94,0 -3.52,-1.58 -3.52,-3.52l0 -4.86c0,-0.74 -0.6,-1.34 -1.34,-1.34 -0.74,0 -1.34,0.6 -1.34,1.34l0 4.86c0,3.42 2.78,6.2 6.2,6.2 1.32,0 2.54,-0.41 3.54,-1.11 0.12,0.62 0.66,1.09 1.32,1.09 0.74,0 1.34,-0.6 1.34,-1.34l0 -9.7c0,-0.74 -0.6,-1.34 -1.34,-1.34z"/>
  </g>
 </g>
</svg>
